<svg width="32" height="32" viewBox="0 0 32 32" fill="none" xmlns="http://www.w3.org/2000/svg">
<path d="M15.1773 4.10539C14.6786 3.90005 14.1053 4.01339 13.724 4.39472L7.99996 10.6694H3.99996C3.26663 10.6694 2.66663 11.2707 2.66663 12.0027V20.0027C2.66663 20.736 3.26663 21.336 3.99996 21.336H7.99996L13.724 27.6133C14.1053 27.9947 14.6786 28.1093 15.1773 27.9027C15.676 27.696 16 27.2093 16 26.6693V5.33605C16 4.79872 15.676 4.30939 15.1773 4.10539ZM18.6666 6.66927V9.33593C22.3426 9.33593 25.3333 12.3279 25.3333 16.0027C25.3333 19.6787 22.3426 22.6693 18.6666 22.6693V25.336C23.8133 25.336 28 21.1507 28 16.0027C28 10.8573 23.8133 6.66927 18.6666 6.66927ZM18.6666 12.0026C20.872 12.0026 22.6666 13.7987 22.6666 16.0027C22.6666 18.2093 20.872 20.0027 18.6666 20.0027V17.336C19.4013 17.336 20 16.7373 20 16.0027C20 15.268 19.4013 14.6693 18.6666 14.6693V12.0026Z" fill="#C7C8CE"/>
</svg>
